<svg width="880" height="220" viewBox="0 0 880 220" xmlns="http://www.w3.org/2000/svg" role="img" aria-label="Decapod">
  <defs>
    <linearGradient id="dpGlow" x1="0" y1="0" x2="1" y2="1">
      <stop offset="0" stop-color="currentColor" stop-opacity="0.95"/>
      <stop offset="0.5" stop-color="currentColor" stop-opacity="0.65"/>
      <stop offset="1" stop-color="currentColor" stop-opacity="0.45"/>
    </linearGradient>

    <linearGradient id="dpNeon" x1="0" y1="1" x2="1" y2="0">
      <stop offset="0" stop-color="currentColor" stop-opacity="0.18"/>
      <stop offset="1" stop-color="currentColor" stop-opacity="0.78"/>
    </linearGradient>

    <filter id="softGlow" x="-30%" y="-60%" width="160%" height="220%">
      <feGaussianBlur stdDeviation="3.5" result="b"/>
      <feColorMatrix in="b" type="matrix"
        values="1 0 0 0 0
                0 1 0 0 0
                0 0 1 0 0
                0 0 0 0.85 0" result="g"/>
      <feMerge>
        <feMergeNode in="g"/>
        <feMergeNode in="SourceGraphic"/>
      </feMerge>
    </filter>

    <filter id="hardGlow" x="-40%" y="-80%" width="180%" height="260%">
      <feGaussianBlur stdDeviation="6" result="b"/>
      <feMerge>
        <feMergeNode in="b"/>
        <feMergeNode in="SourceGraphic"/>
      </feMerge>
    </filter>

    <pattern id="scan" width="10" height="10" patternUnits="userSpaceOnUse">
      <path d="M0 0 H10" stroke="currentColor" stroke-opacity="0.06" stroke-width="1"/>
    </pattern>

    <mask id="fadeMask">
      <rect x="0" y="0" width="880" height="220" fill="white"/>
      <rect x="0" y="155" width="880" height="90" fill="black" opacity="0.15"/>
    </mask>
  </defs>

  <g mask="url(#fadeMask)">
    <rect x="14" y="14" width="852" height="192" rx="24" fill="none" stroke="url(#dpNeon)" stroke-width="2.5" opacity="0.95"/>
    <rect x="20" y="20" width="840" height="180" rx="20" fill="url(#scan)" opacity="1"/>
  </g>

  <g transform="translate(78 112)" filter="url(#softGlow)">
    <circle r="56" fill="none" stroke="url(#dpNeon)" stroke-width="2.5"/>
    <circle r="44" fill="none" stroke="url(#dpNeon)" stroke-width="1.5" opacity="0.65"/>

    <g stroke="url(#dpGlow)" fill="none" stroke-linecap="round" stroke-linejoin="round">
      <path d="M-24 -10 Q0 -34 24 -10" stroke-width="5"/>
      <path d="M-22 -6 Q0 -22 22 -6" stroke-width="3" opacity="0.7"/>
      <path d="M0 -6 L0 22" stroke-width="2.5" opacity="0.6"/>
      <path d="M-8 -18 L-14 -26" stroke-width="2.5" opacity="0.7"/>
      <path d="M8 -18 L14 -26" stroke-width="2.5" opacity="0.7"/>

      <path d="M-26 2 L-44 -10 L-58 -4" stroke-width="3.5"/>
      <path d="M-58 -4 L-50 6" stroke-width="2.5" opacity="0.7"/>
      <path d="M26 2 L44 -10 L58 -4" stroke-width="3.5"/>
      <path d="M58 -4 L50 6" stroke-width="2.5" opacity="0.7"/>

      <path d="M-18 10 L-40 20 L-58 34" stroke-width="3"/>
      <path d="M-10 18 L-32 34 L-46 52" stroke-width="3"/>
      <path d="M-2 24 L-18 46 L-26 62" stroke-width="3" opacity="0.95"/>

      <path d="M18 10 L40 20 L58 34" stroke-width="3"/>
      <path d="M10 18 L32 34 L46 52" stroke-width="3"/>
      <path d="M2 24 L18 46 L26 62" stroke-width="3" opacity="0.95"/>
    </g>

    <circle cx="0" cy="22" r="4.5" fill="currentColor" opacity="0.85" filter="url(#hardGlow)"/>
  </g>

  <g transform="translate(175 82)">
    <text x="0" y="0"
      font-family="ui-sans-serif, system-ui, -apple-system, Segoe UI, Roboto, Helvetica, Arial"
      font-size="56"
      letter-spacing="1.6"
      fill="currentColor"
      opacity="0.95"
      filter="url(#softGlow)">DECAPOD</text>

    <text x="2" y="34"
      font-family="ui-monospace, SFMono-Regular, Menlo, Monaco, Consolas, 'Liberation Mono', 'Courier New', monospace"
      font-size="14"
      letter-spacing="0.6"
      fill="currentColor"
      opacity="0.78">repo-native • control-plane kernel • safe shared state</text>

    <g transform="translate(0 62)" filter="url(#softGlow)">
      <rect x="0" y="0" width="520" height="34" rx="12" fill="none" stroke="url(#dpNeon)" stroke-width="2"/>
      <text x="14" y="22"
        font-family="ui-monospace, SFMono-Regular, Menlo, Monaco, Consolas, 'Liberation Mono', 'Courier New', monospace"
        font-size="14"
        fill="currentColor"
        opacity="0.94">🦀 enforce truth • punish drift • ship in parallel</text>
    </g>
  </g>

  <g transform="translate(690 46)" opacity="0.92" filter="url(#softGlow)">
    <path d="M0 0 H160" stroke="url(#dpNeon)" stroke-width="2"/>
    <path d="M0 32 H160" stroke="url(#dpNeon)" stroke-width="2" opacity="0.75"/>
    <path d="M0 64 H160" stroke="url(#dpNeon)" stroke-width="2" opacity="0.55"/>

    <path d="M0 0 V128" stroke="url(#dpNeon)" stroke-width="2" opacity="0.35"/>
    <path d="M40 0 V128" stroke="url(#dpNeon)" stroke-width="2" opacity="0.25"/>
    <path d="M80 0 V128" stroke="url(#dpNeon)" stroke-width="2" opacity="0.2"/>
    <path d="M120 0 V128" stroke="url(#dpNeon)" stroke-width="2" opacity="0.15"/>

    <circle cx="120" cy="64" r="6" fill="currentColor" opacity="0.82"/>
    <circle cx="120" cy="64" r="18" fill="none" stroke="currentColor" stroke-opacity="0.25" stroke-width="2"/>
    <circle cx="120" cy="64" r="30" fill="none" stroke="currentColor" stroke-opacity="0.12" stroke-width="2"/>
  </g>
</svg>
